<svg width="15" height="16" viewBox="0 0 15 16" fill="none" xmlns="http://www.w3.org/2000/svg">
<g clip-path="url(#clip0_1_95)">
<path d="M14.7656 8.03003C14.7656 12.0427 11.5127 15.2957 7.5 15.2957C3.4873 15.2957 0.234375 12.0427 0.234375 8.03003C0.234375 4.01732 3.4873 0.764404 7.5 0.764404C11.5127 0.764404 14.7656 4.01732 14.7656 8.03003ZM6.65959 11.8771L12.0502 6.48649C12.2333 6.30345 12.2333 6.00664 12.0502 5.82359L11.3873 5.16069C11.2043 4.97762 10.9075 4.97762 10.7244 5.16069L6.32812 9.55692L4.27562 7.50441C4.09257 7.32137 3.79576 7.32137 3.61269 7.50441L2.94978 8.16731C2.76674 8.35036 2.76674 8.64717 2.94978 8.83021L5.99666 11.8771C6.17974 12.0602 6.47651 12.0602 6.65959 11.8771Z" fill="#1B1C1D"/>
</g>
<defs>
<clipPath id="clip0_1_95">
<rect width="15" height="15" fill="white" transform="translate(0 0.530029)"/>
</clipPath>
</defs>
</svg>
