<svg width="41" height="41" viewBox="0 0 41 41" fill="none" xmlns="http://www.w3.org/2000/svg">
<g clip-path="url(#clip0_1_150)">
<path d="M33.97 32.8H7.96997C7.41997 32.8 6.96997 33.25 6.96997 33.8V35.8C6.96997 36.35 7.41997 36.8 7.96997 36.8H33.97C34.52 36.8 34.97 36.35 34.97 35.8V33.8C34.97 33.25 34.52 32.8 33.97 32.8ZM37.97 12.8C36.3137 12.8 34.97 14.1438 34.97 15.8C34.97 16.2438 35.07 16.6563 35.245 17.0375L30.72 19.75C29.7575 20.325 28.5137 20 27.9575 19.025L22.8637 10.1125C23.5325 9.56255 23.97 8.73755 23.97 7.80005C23.97 6.1438 22.6262 4.80005 20.97 4.80005C19.3137 4.80005 17.97 6.1438 17.97 7.80005C17.97 8.73755 18.4075 9.56255 19.0762 10.1125L13.9825 19.025C13.4262 20 12.1762 20.325 11.22 19.75L6.70122 17.0375C6.86997 16.6625 6.97622 16.2438 6.97622 15.8C6.97622 14.1438 5.63247 12.8 3.97622 12.8C2.31997 12.8 0.969971 14.1438 0.969971 15.8C0.969971 17.4563 2.31372 18.8 3.96997 18.8C4.13247 18.8 4.29497 18.775 4.45122 18.75L8.96997 30.8H32.97L37.4887 18.75C37.645 18.775 37.8075 18.8 37.97 18.8C39.6262 18.8 40.97 17.4563 40.97 15.8C40.97 14.1438 39.6262 12.8 37.97 12.8Z" fill="#1B1C1D"/>
</g>
<defs>
<clipPath id="clip0_1_150">
<rect width="40" height="40" fill="white" transform="translate(0.969971 0.800049)"/>
</clipPath>
</defs>
</svg>
