<svg width="40" height="41" viewBox="0 0 40 41" fill="none" xmlns="http://www.w3.org/2000/svg">
<g clip-path="url(#clip0_1_90)">
<path d="M38.8081 23.153H21.3603L32.9801 34.7729C33.4242 35.217 34.1551 35.253 34.6117 34.8228C37.4573 32.142 39.4147 28.528 39.9889 24.4655C40.0875 23.7699 39.5103 23.153 38.8081 23.153ZM37.6441 18.3883C37.0382 9.60447 30.0191 2.58535 21.2353 1.97947C20.5647 1.93314 20 2.49858 20 3.17064V19.6236H36.4537C37.1257 19.6236 37.6904 19.0589 37.6441 18.3883ZM16.4706 23.153V5.7052C16.4706 5.00299 15.8537 4.42579 15.1588 4.52432C6.3963 5.76255 -0.301493 13.4177 0.0102717 22.592C0.33086 32.014 8.44336 39.7405 17.8698 39.6221C21.5757 39.5758 25 38.3817 27.8154 36.3846C28.3963 35.9729 28.4345 35.1177 27.9309 34.614L16.4706 23.153Z" fill="#1B1C1D"/>
</g>
<defs>
<clipPath id="clip0_1_90">
<rect width="40" height="40" fill="white" transform="translate(0 0.800049)"/>
</clipPath>
</defs>
</svg>
