<svg width="16" height="17" viewBox="0 0 16 17" fill="none" xmlns="http://www.w3.org/2000/svg">
<path d="M8.00312 5.21543C6.01562 5.21543 4.41249 6.81855 4.41249 8.80605C4.41249 10.7936 6.01562 12.3967 8.00312 12.3967C9.99062 12.3967 11.5937 10.7936 11.5937 8.80605C11.5937 6.81855 9.99062 5.21543 8.00312 5.21543ZM8.00312 11.1404C6.71874 11.1404 5.66874 10.0936 5.66874 8.80605C5.66874 7.51855 6.71562 6.47168 8.00312 6.47168C9.29062 6.47168 10.3375 7.51855 10.3375 8.80605C10.3375 10.0936 9.28749 11.1404 8.00312 11.1404ZM12.5781 5.06855C12.5781 5.53418 12.2031 5.90605 11.7406 5.90605C11.275 5.90605 10.9031 5.53105 10.9031 5.06855C10.9031 4.60605 11.2781 4.23105 11.7406 4.23105C12.2031 4.23105 12.5781 4.60605 12.5781 5.06855ZM14.9562 5.91855C14.9031 4.79668 14.6469 3.80293 13.825 2.98418C13.0062 2.16543 12.0125 1.90918 10.8906 1.85293C9.73437 1.7873 6.26874 1.7873 5.11249 1.85293C3.99374 1.90605 2.99999 2.1623 2.17812 2.98105C1.35624 3.7998 1.10312 4.79355 1.04687 5.91543C0.981244 7.07168 0.981244 10.5373 1.04687 11.6936C1.09999 12.8154 1.35624 13.8092 2.17812 14.6279C2.99999 15.4467 3.99062 15.7029 5.11249 15.7592C6.26874 15.8248 9.73437 15.8248 10.8906 15.7592C12.0125 15.7061 13.0062 15.4498 13.825 14.6279C14.6437 13.8092 14.9 12.8154 14.9562 11.6936C15.0219 10.5373 15.0219 7.0748 14.9562 5.91855ZM13.4625 12.9342C13.2187 13.5467 12.7469 14.0186 12.1312 14.2654C11.2094 14.6311 9.02187 14.5467 8.00312 14.5467C6.98437 14.5467 4.79374 14.6279 3.87499 14.2654C3.26249 14.0217 2.79062 13.5498 2.54374 12.9342C2.17812 12.0123 2.26249 9.8248 2.26249 8.80605C2.26249 7.7873 2.18124 5.59668 2.54374 4.67793C2.78749 4.06543 3.25937 3.59355 3.87499 3.34668C4.79687 2.98105 6.98437 3.06543 8.00312 3.06543C9.02187 3.06543 11.2125 2.98418 12.1312 3.34668C12.7437 3.59043 13.2156 4.0623 13.4625 4.67793C13.8281 5.5998 13.7437 7.7873 13.7437 8.80605C13.7437 9.8248 13.8281 12.0154 13.4625 12.9342Z" fill="#1B1C1D"/>
</svg>
