<svg width="41" height="41" viewBox="0 0 41 41" fill="none" xmlns="http://www.w3.org/2000/svg">
<g clip-path="url(#clip0_1_115)">
<path d="M29.8689 16.3555C29.8689 10.2187 23.4022 5.24438 15.4245 5.24438C7.44668 5.24438 0.980011 10.2187 0.980011 16.3555C0.980011 18.7354 1.96126 20.9354 3.61682 22.743C2.68904 24.843 1.15501 26.5055 1.13279 26.5291C1.05801 26.6079 1.00797 26.7068 0.988869 26.8137C0.969763 26.9206 0.982427 27.0308 1.0253 27.1306C1.06816 27.2303 1.13935 27.3154 1.23005 27.3751C1.32075 27.4348 1.42697 27.4666 1.53557 27.4666C4.07584 27.4666 6.18348 26.6159 7.69737 25.7319C9.93348 26.8249 12.5786 27.4666 15.4245 27.4666C23.4022 27.4666 29.8689 22.4923 29.8689 16.3555ZM14.3133 23.0222V21.8909C13.5293 21.8506 12.7668 21.577 12.1349 21.1027C11.864 20.8992 11.8502 20.4937 12.0953 20.2597L12.9113 19.4812C13.1036 19.2979 13.3897 19.2895 13.6147 19.4305C13.8835 19.5986 14.1883 19.6888 14.505 19.6888H16.4571C16.9085 19.6888 17.2765 19.2777 17.2765 18.7729C17.2765 18.3597 17.0258 17.9958 16.6675 17.8888L13.5425 16.9513C12.2515 16.5638 11.3495 15.3249 11.3495 13.9381C11.3495 12.2354 12.6724 10.852 14.3127 10.8083V9.68883C14.3127 9.38189 14.5613 9.13327 14.8682 9.13327H15.9793C16.2863 9.13327 16.5349 9.38189 16.5349 9.68883V10.8201C17.3189 10.8604 18.0814 11.1333 18.7133 11.6083C18.9842 11.8117 18.9981 12.2173 18.7529 12.4513L17.937 13.2298C17.7446 13.4131 17.4585 13.4215 17.2335 13.2805C16.9647 13.1117 16.6599 13.0222 16.3432 13.0222H14.3911C13.9397 13.0222 13.5717 13.4333 13.5717 13.9381C13.5717 14.3513 13.8224 14.7152 14.1807 14.8222L17.3057 15.7597C18.5967 16.1472 19.4988 17.3861 19.4988 18.7729C19.4988 20.4763 18.1758 21.859 16.5356 21.9027V23.0222C16.5356 23.3291 16.287 23.5777 15.98 23.5777H14.8689C14.562 23.5777 14.3133 23.3291 14.3133 23.0222ZM38.3418 31.6326C39.9988 29.8249 40.98 27.6242 40.98 25.2444C40.98 20.5958 37.2654 16.6194 31.9988 14.9617C32.0585 15.4201 32.0911 15.8847 32.0911 16.3555C32.0911 23.7076 24.6147 29.6888 15.4245 29.6888C14.6758 29.6888 13.9439 29.6354 13.221 29.5583C15.4106 33.552 20.5474 36.3555 26.5356 36.3555C29.3814 36.3555 32.0265 35.7138 34.2626 34.6208C35.7765 35.5048 37.8842 36.3555 40.4245 36.3555C40.6467 36.3555 40.8474 36.2229 40.9342 36.0194C41.0224 35.8152 40.98 35.5791 40.8265 35.4173C40.805 35.3944 39.2696 33.734 38.3418 31.6326Z" fill="#1B1C1D"/>
</g>
<defs>
<clipPath id="clip0_1_115">
<rect width="40" height="40" fill="white" transform="translate(0.980011 0.800049)"/>
</clipPath>
</defs>
</svg>
