<svg width="16" height="17" viewBox="0 0 16 17" fill="none" xmlns="http://www.w3.org/2000/svg">
<path d="M14.3553 5.55106C14.3655 5.69319 14.3655 5.83534 14.3655 5.97747C14.3655 10.3125 11.066 15.3074 5.03553 15.3074C3.17766 15.3074 1.45178 14.7693 0 13.8353C0.263969 13.8658 0.51775 13.8759 0.791875 13.8759C2.32484 13.8759 3.73603 13.3582 4.86294 12.4749C3.42131 12.4445 2.21319 11.5003 1.79694 10.2008C2 10.2312 2.20303 10.2516 2.41625 10.2516C2.71066 10.2516 3.00509 10.2109 3.27919 10.1399C1.77666 9.83531 0.649719 8.51553 0.649719 6.92163V6.88103C1.08625 7.12469 1.59391 7.27697 2.13194 7.29725C1.24869 6.70841 0.670031 5.70334 0.670031 4.56628C0.670031 3.95716 0.832438 3.39878 1.11672 2.91147C2.73094 4.90131 5.15734 6.20078 7.87813 6.34294C7.82738 6.09928 7.79691 5.8455 7.79691 5.59169C7.79691 3.78456 9.25884 2.3125 11.0761 2.3125C12.0203 2.3125 12.873 2.70844 13.472 3.34803C14.2131 3.20591 14.9238 2.93178 15.5533 2.55616C15.3096 3.31759 14.7918 3.95719 14.1116 4.36325C14.7715 4.29222 15.4111 4.10944 15.9999 3.85566C15.5533 4.50537 14.9949 5.08403 14.3553 5.55106Z" fill="#1B1C1D"/>
</svg>
